<?xml version="1.0" encoding="UTF-8"?>
<svg xmlns="http://www.w3.org/2000/svg" xmlns:xlink="http://www.w3.org/1999/xlink" viewBox="0 0 2000 2000">
  <defs>
    <style>
      .uuid-43be9228-6d57-4f27-958b-be2b1a547b9a {
        fill: #eee;
      }

      .uuid-43be9228-6d57-4f27-958b-be2b1a547b9a, .uuid-38920334-8d9b-4447-b21a-6b1eedb8f1d4, .uuid-981e0f4c-8acf-4356-8fec-f3e064660be9 {
        stroke-width: 0px;
      }

      .uuid-38920334-8d9b-4447-b21a-6b1eedb8f1d4 {
        opacity: .5;
      }

      .uuid-981e0f4c-8acf-4356-8fec-f3e064660be9 {
        fill: url(#uuid-45c5811d-e554-4972-81ab-fdfae284e133);
      }
    </style>
    <linearGradient id="uuid-45c5811d-e554-4972-81ab-fdfae284e133" x1="886.95" y1="880.48" x2="1187.63" y2="1211.66" gradientUnits="userSpaceOnUse">
      <stop offset="0" stop-color="#00c6ff"/>
      <stop offset=".85" stop-color="#0072ff"/>
    </linearGradient>
  </defs>
  <g id="uuid-deacf08e-a09c-499d-b360-b599e570a680" data-name="back">
    <rect class="uuid-43be9228-6d57-4f27-958b-be2b1a547b9a" width="2000" height="2000"/>
  </g>
  <g id="uuid-eb04765c-41ba-4d8d-9505-42347d1c8f72" data-name="color">
    <g>
      <path class="uuid-981e0f4c-8acf-4356-8fec-f3e064660be9" d="m1000,941.34v151.97c0,4.13,4.73,6.48,8.02,3.98l42.98-32.61c.87-.66,1.93-1.02,3.02-1.02h77.08c-.25.52-.51,1.04-.78,1.55-4.16,8.28-9.09,16.13-14.71,23.43-27.01,35.17-69.7,57.72-117.52,57.1-78.98-1.02-143.22-65.61-143.84-144.59-.63-80.89,65-146.9,145.75-146.9,29.38,0,57.48,8.61,81.59,24.96,2.23,1.51,5.26.99,6.84-1.19l68.99-94.95c1.65-2.27,1.1-5.45-1.2-7.06-45.97-32.13-99.87-49.09-156.23-49.09-72.46,0-142.02,28.84-193.22,80.11-51.5,51.57-79.86,120.08-79.86,192.97,0,72.39,28.66,141.67,79.79,192.91,51.07,51.16,118.82,79.58,191.01,80.16,71.11.58,139.91-26.67,191.22-75.9,31.28-30.02,54.47-66.1,68.5-105.65,2.82-7.97,5.29-16.08,7.37-24.32.29-1.18.58-2.36.86-3.54,4.9-20.6,7.41-41.95,7.41-63.66v-58.66c0-2.76-2.24-5-5-5h-263.08c-2.76,0-5,2.24-5,5Zm206.68,43.26c8.83-.38,16.1,6.66,16.1,15.4s-6.89,15.41-15.41,15.41-15.82-7.32-15.4-16.18c.38-7.85,6.86-14.3,14.71-14.63Zm-126.48,30.81c-8.77,0-15.83-7.32-15.4-16.18.38-7.85,6.86-14.3,14.71-14.63,8.83-.38,16.1,6.66,16.1,15.4s-6.89,15.41-15.41,15.41Zm48.19-16.18c.38-7.85,6.86-14.3,14.71-14.63,8.83-.38,16.1,6.66,16.1,15.4s-6.89,15.41-15.41,15.41-15.83-7.32-15.4-16.18Z"/>
      <path class="uuid-38920334-8d9b-4447-b21a-6b1eedb8f1d4" d="m1265.67,1063.66c-.28,1.18-.57,2.36-.86,3.54l-149.2,21.44c5.62-7.3,10.55-15.14,14.71-23.43.27-.51.53-1.03.78-1.55h134.57Z"/>
    </g>
  </g>
</svg>